<svg xmlns="http://www.w3.org/2000/svg" xml:space="preserve" width="8in" height="8in" style="shape-rendering:geometricPrecision; text-rendering:geometricPrecision; image-rendering:optimizeQuality; fill-rule:evenodd; clip-rule:evenodd" viewBox="0 0 8 8" xmlns:xlink="http://www.w3.org/1999/xlink">
 <defs>
  <style type="text/css">
   
    .fil1 {fill:black}
    .fil0 {fill:black;fill-rule:nonzero}
   
  </style>
 </defs>
 <g id="Layer_x0020_1">
  <metadata id="CorelCorpID_0Corel-Layer"></metadata>
  <g id="_198653608">
   <path id="_198654784" class="fil0" d="M5.35049 2.25863l0.416354 0.721154 0.000133858 -7.87402e-005 5.51181e-005 9.44882e-005 0.000165354 -9.44882e-005c0.000917323,0.00159055 0.00176772,0.00320472 0.00256693,0.00482677l0.417335 0.722843 -0.069063 0.04 0.0692835 -0.04c0.0220906,0.0382638 0.00898031,0.0871929 -0.0292835,0.109283 -0.00133465,0.000771654 -0.00268504,0.00149213 -0.00404331,0.00217717 -0.0306457,0.0186339 -0.0561102,0.0445748 -0.0738268,0.0752717 -0.0177677,0.0307835 -0.0279409,0.0669291 -0.0279409,0.10589 0,0.0389606 0.0101732,0.0751063 0.0279409,0.10589 0.0184843,0.0320276 0.0454016,0.058878 0.0778425,0.0776535l9.44882e-005 -0.000165354c0.0382402,0.022126 0.0513031,0.0710709 0.0291772,0.109311 -0.000905512,0.00156693 -0.0018622,0.00309055 -0.00285827,0.00457087l-0.41739 0.722937 0.000165354 9.44882e-005c-0.00125197,0.00216929 -0.00259843,0.00425197 -0.00401181,0.00625591l-0.416327 0.721102 -0.069063 -0.039689 0.0692835 0.04c-0.0220906,0.0382638 -0.0710197,0.051374 -0.109283,0.0292835 -0.00137008,-0.000791339 -0.00270472,-0.00161811 -0.00400787,-0.00247638 -0.0144961,-0.00795669 -0.0302087,-0.0143031 -0.046878,-0.0187638 -0.0172559,-0.00461811 -0.0356811,-0.00708268 -0.0549685,-0.00708268 -0.0584528,0 -0.111378,0.023689 -0.149677,0.0619882 -0.0382992,0.0382992 -0.0619882,0.0912244 -0.0619882,0.149677 0,0.0441811 -0.0358189,0.08 -0.08,0.08l-0.84028 0 -0.84028 0c-0.0441811,0 -0.08,-0.0358189 -0.08,-0.08 0,-0.0584528 -0.023689,-0.111378 -0.0619882,-0.149677 -0.0382992,-0.0382992 -0.0912244,-0.0619882 -0.149677,-0.0619882 -0.0192874,0 -0.0377126,0.00246457 -0.0549685,0.00708268 -0.0182165,0.00487402 -0.0352913,0.0119961 -0.0508858,0.0210197l-0.04 -0.069063 0.040063 0.0692441c-0.0382402,0.022126 -0.0871811,0.00905906 -0.109307,-0.0291811 -0.00126378,-0.00218504 -0.00240945,-0.00440551 -0.00344882,-0.00665748l-0.416354 -0.721154 -0.000133858 7.87402e-005 -5.51181e-005 -9.44882e-005 -0.000165354 9.44882e-005c-0.000917323,-0.00159055 -0.00176772,-0.00320472 -0.00256693,-0.00482677l-0.417335 -0.722843 0.069063 -0.04 -0.0692835 0.04c-0.0220906,-0.0382638 -0.00898031,-0.0871929 0.0292835,-0.109283 0.00133465,-0.000771654 0.00268504,-0.00149213 0.00404331,-0.00217717 0.0306457,-0.0186339 0.0561102,-0.0445748 0.0738268,-0.0752717 0.0177677,-0.0307835 0.0279409,-0.0669291 0.0279409,-0.10589 0,-0.0389606 -0.0101732,-0.0751063 -0.0279409,-0.10589 -0.0184843,-0.0320276 -0.0454016,-0.058878 -0.0778425,-0.0776535l-9.44882e-005 0.000165354c-0.0382402,-0.022126 -0.0513031,-0.0710709 -0.0291772,-0.109311 0.000905512,-0.00156693 0.0018622,-0.00309055 0.00285827,-0.00457087l0.41739 -0.722937 -0.000165354 -9.44882e-005c0.00125197,-0.00216929 0.00259843,-0.00425197 0.00401181,-0.00625591l0.416327 -0.721102 0.069063 0.039689 -0.0692835 -0.04c0.0220906,-0.0382638 0.0710197,-0.051374 0.109283,-0.0292835 0.00137008,0.000791339 0.00270472,0.00161811 0.00400787,0.00247638 0.0144961,0.00795669 0.0302087,0.0143031 0.046878,0.0187638 0.0172559,0.00461811 0.0356811,0.00708268 0.0549685,0.00708268 0.0584528,0 0.111378,-0.023689 0.149677,-0.0619882 0.0382992,-0.0382992 0.0619882,-0.0912244 0.0619882,-0.149677 0,-0.0441811 0.0358189,-0.08 0.08,-0.08l0.84028 0 0.84028 0c0.0441811,0 0.08,0.0358189 0.08,0.08 0,0.0584528 0.023689,0.111378 0.0619882,0.149677 0.0382992,0.0382992 0.0912244,0.0619882 0.149677,0.0619882 0.0192874,0 0.0377126,-0.00246457 0.0549685,-0.00708268 0.0182165,-0.00487402 0.0352913,-0.0119961 0.0508858,-0.0210197l0.04 0.069063 -0.040063 -0.0692441c0.0382402,-0.022126 0.0871811,-0.00905906 0.109307,0.0291811 0.00126378,0.00218504 0.00240945,0.00440551 0.00344882,0.00665748zm0.347425 0.761075l-0.069063 0.039689 -0.384394 -0.665795c-0.00538189,0.0017126 -0.0108189,0.00330709 -0.0162953,0.00477165 -0.0309567,0.00828346 -0.0632283,0.0127047 -0.0962205,0.0127047 -0.102618,0 -0.195539,-0.0416063 -0.262803,-0.108862 -0.0492559,-0.0492638 -0.084752,-0.112287 -0.100224,-0.182803l-0.768917 0 -0.768917 0c-0.0154724,0.0705157 -0.0509685,0.133539 -0.100224,0.182803 -0.0672638,0.0672559 -0.160185,0.108862 -0.262803,0.108862 -0.0329921,0 -0.0652638,-0.00442126 -0.0962205,-0.0127047 -0.00547638,-0.00146457 -0.0109134,-0.00305906 -0.0162953,-0.00477165l-0.380764 0.659508c-0.00102756,0.00222835 -0.00215748,0.00443307 -0.00340945,0.00659843l-0.0692835 -0.04 0.069063 0.04 -0.384559 0.666071c0.0280276,0.0256811 0.0521614,0.0556693 0.0713701,0.0889528 0.0316811,0.0548937 0.049815,0.118193 0.049815,0.185268 0,0.0670748 -0.0181339,0.130374 -0.049815,0.185268 -0.0192087,0.0332835 -0.0433425,0.0632717 -0.0713701,0.0889528l0.381878 0.661429c0.00101181,0.00150787 0.00198031,0.00304724 0.00290157,0.00464173l-0.0692835 0.04 0.069063 -0.039689 0.384394 0.665795c0.00538189,-0.0017126 0.0108189,-0.00330709 0.0162953,-0.00477165 0.0309567,-0.00828346 0.0632283,-0.0127047 0.0962205,-0.0127047 0.102618,0 0.195539,0.0416063 0.262803,0.108862 0.0492559,0.0492638 0.084752,0.112287 0.100224,0.182803l0.768917 0 0.768917 0c0.0154724,-0.0705157 0.0509685,-0.133539 0.100224,-0.182803 0.0672638,-0.0672559 0.160185,-0.108862 0.262803,-0.108862 0.0329921,0 0.0652638,0.00442126 0.0962205,0.0127047 0.00547638,0.00146457 0.0109134,0.00305906 0.0162953,0.00477165l0.380764 -0.659508c0.00102756,-0.00222835 0.00215748,-0.00443307 0.00340945,-0.00659843l0.0692835 0.04 -0.069063 -0.04 0.384559 -0.666071c-0.0280276,-0.0256811 -0.0521614,-0.0556693 -0.0713701,-0.0889528 -0.0316811,-0.0548937 -0.049815,-0.118193 -0.049815,-0.185268 0,-0.0670748 0.0181339,-0.130374 0.049815,-0.185268 0.0192087,-0.0332835 0.0433425,-0.0632717 0.0713701,-0.0889528l-0.381878 -0.661429c-0.00101181,-0.00150787 -0.00198031,-0.00304724 -0.00290157,-0.00464173l0.0692835 -0.04z" style="fill: rgb(124, 0, 255);"></path>
   <path id="_198654472" class="fil0" d="M1.73611 3.62833c0.102618,0 0.195539,0.0416063 0.262803,0.108862 0.0672559,0.0672638 0.108862,0.160177 0.108862,0.262803 0,0.102626 -0.0416063,0.195539 -0.108862,0.262803 -0.0672638,0.0672559 -0.160185,0.108862 -0.262803,0.108862 -0.102626,0 -0.195539,-0.0416063 -0.262803,-0.108862 -0.0672559,-0.0672638 -0.108862,-0.160177 -0.108862,-0.262803 0,-0.102626 0.0416063,-0.195539 0.108862,-0.262803 0.0672638,-0.0672559 0.160177,-0.108862 0.262803,-0.108862zm0.149677 0.221988c-0.0382992,-0.0382992 -0.0912244,-0.0619882 -0.149677,-0.0619882 -0.0584567,0 -0.111378,0.023689 -0.149677,0.0619882 -0.0382992,0.0382992 -0.0619882,0.0912205 -0.0619882,0.149677 0,0.0584567 0.023689,0.111378 0.0619882,0.149677 0.0382992,0.0382992 0.0912205,0.0619882 0.149677,0.0619882 0.0584528,0 0.111378,-0.023689 0.149677,-0.0619882 0.0382992,-0.0382992 0.0619882,-0.0912205 0.0619882,-0.149677 0,-0.0584567 -0.023689,-0.111378 -0.0619882,-0.149677z" style="fill: rgb(124, 0, 255);"></path>
   <path id="_198655048" class="fil0" d="M2.86806 5.58892c0.102618,0 0.195539,0.0416063 0.262803,0.108862 0.0672559,0.0672638 0.108862,0.160185 0.108862,0.262803 0,0.102626 -0.0416063,0.195539 -0.108862,0.262803 -0.0672638,0.0672559 -0.160185,0.108862 -0.262803,0.108862 -0.102626,0 -0.195539,-0.0416063 -0.262803,-0.108862 -0.0672559,-0.0672638 -0.108862,-0.160177 -0.108862,-0.262803 0,-0.102618 0.0416063,-0.195539 0.108862,-0.262803 0.0672638,-0.0672559 0.160177,-0.108862 0.262803,-0.108862zm0.149677 0.221988c-0.0382992,-0.0382992 -0.0912244,-0.0619882 -0.149677,-0.0619882 -0.0584567,0 -0.111378,0.023689 -0.149677,0.0619882 -0.0382992,0.0382992 -0.0619882,0.0912244 -0.0619882,0.149677 0,0.0584567 0.023689,0.111378 0.0619882,0.149677 0.0382992,0.0382992 0.0912205,0.0619882 0.149677,0.0619882 0.0584528,0 0.111378,-0.023689 0.149677,-0.0619882 0.0382992,-0.0382992 0.0619882,-0.0912205 0.0619882,-0.149677 0,-0.0584528 -0.023689,-0.111378 -0.0619882,-0.149677z" style="fill: rgb(124, 0, 255);"></path>
   <path id="_198654280" class="fil0" d="M2.86806 1.66775c0.102618,0 0.195539,0.0416063 0.262803,0.108862 0.0672559,0.0672638 0.108862,0.160177 0.108862,0.262803 0,0.102618 -0.0416063,0.195539 -0.108862,0.262803 -0.0672638,0.0672559 -0.160185,0.108862 -0.262803,0.108862 -0.102626,0 -0.195539,-0.0416063 -0.262803,-0.108862 -0.0672559,-0.0672638 -0.108862,-0.160185 -0.108862,-0.262803 0,-0.102626 0.0416063,-0.195539 0.108862,-0.262803 0.0672638,-0.0672559 0.160177,-0.108862 0.262803,-0.108862zm0.149677 0.221988c-0.0382992,-0.0382992 -0.0912244,-0.0619882 -0.149677,-0.0619882 -0.0584567,0 -0.111378,0.023689 -0.149677,0.0619882 -0.0382992,0.0382992 -0.0619882,0.0912205 -0.0619882,0.149677 0,0.0584528 0.023689,0.111378 0.0619882,0.149677 0.0382992,0.0382992 0.0912205,0.0619882 0.149677,0.0619882 0.0584528,0 0.111378,-0.023689 0.149677,-0.0619882 0.0382992,-0.0382992 0.0619882,-0.0912244 0.0619882,-0.149677 0,-0.0584567 -0.023689,-0.111378 -0.0619882,-0.149677z" style="fill: rgb(124, 0, 255);"></path>
   <path id="_198653968" class="fil0" d="M5.13194 1.66775c0.102626,0 0.195539,0.0416063 0.262803,0.108862 0.0672559,0.0672638 0.108862,0.160177 0.108862,0.262803 0,0.102618 -0.0416063,0.195539 -0.108862,0.262803 -0.0672638,0.0672559 -0.160177,0.108862 -0.262803,0.108862 -0.102618,0 -0.195539,-0.0416063 -0.262803,-0.108862 -0.0672559,-0.0672638 -0.108862,-0.160185 -0.108862,-0.262803 0,-0.102626 0.0416063,-0.195539 0.108862,-0.262803 0.0672638,-0.0672559 0.160185,-0.108862 0.262803,-0.108862zm0.149677 0.221988c-0.0382992,-0.0382992 -0.0912205,-0.0619882 -0.149677,-0.0619882 -0.0584528,0 -0.111378,0.023689 -0.149677,0.0619882 -0.0382992,0.0382992 -0.0619882,0.0912205 -0.0619882,0.149677 0,0.0584528 0.023689,0.111378 0.0619882,0.149677 0.0382992,0.0382992 0.0912244,0.0619882 0.149677,0.0619882 0.0584567,0 0.111378,-0.023689 0.149677,-0.0619882 0.0382992,-0.0382992 0.0619882,-0.0912244 0.0619882,-0.149677 0,-0.0584567 -0.023689,-0.111378 -0.0619882,-0.149677z" style="fill: rgb(124, 0, 255);"></path>
   <path id="_198653824" class="fil0" d="M6.26389 3.62833c0.102626,0 0.195539,0.0416063 0.262803,0.108862 0.0672559,0.0672638 0.108862,0.160177 0.108862,0.262803 0,0.102626 -0.0416063,0.195539 -0.108862,0.262803 -0.0672638,0.0672559 -0.160177,0.108862 -0.262803,0.108862 -0.102618,0 -0.195539,-0.0416063 -0.262803,-0.108862 -0.0672559,-0.0672638 -0.108862,-0.160177 -0.108862,-0.262803 0,-0.102626 0.0416063,-0.195539 0.108862,-0.262803 0.0672638,-0.0672559 0.160185,-0.108862 0.262803,-0.108862zm0.149677 0.221988c-0.0382992,-0.0382992 -0.0912205,-0.0619882 -0.149677,-0.0619882 -0.0584528,0 -0.111378,0.023689 -0.149677,0.0619882 -0.0382992,0.0382992 -0.0619882,0.0912205 -0.0619882,0.149677 0,0.0584567 0.023689,0.111378 0.0619882,0.149677 0.0382992,0.0382992 0.0912244,0.0619882 0.149677,0.0619882 0.0584567,0 0.111378,-0.023689 0.149677,-0.0619882 0.0382992,-0.0382992 0.0619882,-0.0912205 0.0619882,-0.149677 0,-0.0584567 -0.023689,-0.111378 -0.0619882,-0.149677z" style="fill: rgb(124, 0, 255);"></path>
   <path id="_198653800" class="fil0" d="M5.13194 5.58892c0.102626,0 0.195539,0.0416063 0.262803,0.108862 0.0672559,0.0672638 0.108862,0.160185 0.108862,0.262803 0,0.102626 -0.0416063,0.195539 -0.108862,0.262803 -0.0672638,0.0672559 -0.160177,0.108862 -0.262803,0.108862 -0.102618,0 -0.195539,-0.0416063 -0.262803,-0.108862 -0.0672559,-0.0672638 -0.108862,-0.160177 -0.108862,-0.262803 0,-0.102618 0.0416063,-0.195539 0.108862,-0.262803 0.0672638,-0.0672559 0.160185,-0.108862 0.262803,-0.108862zm0.149677 0.221988c-0.0382992,-0.0382992 -0.0912205,-0.0619882 -0.149677,-0.0619882 -0.0584528,0 -0.111378,0.023689 -0.149677,0.0619882 -0.0382992,0.0382992 -0.0619882,0.0912244 -0.0619882,0.149677 0,0.0584567 0.023689,0.111378 0.0619882,0.149677 0.0382992,0.0382992 0.0912244,0.0619882 0.149677,0.0619882 0.0584567,0 0.111378,-0.023689 0.149677,-0.0619882 0.0382992,-0.0382992 0.0619882,-0.0912205 0.0619882,-0.149677 0,-0.0584528 -0.023689,-0.111378 -0.0619882,-0.149677z" style="fill: rgb(124, 0, 255);"></path>
   <path id="_198653896" class="fil0" d="M3.31944 3.65089l1.36111 0c0.0441811,0 0.08,0.0358189 0.08,0.08l0 1.20833c0,0.0441811 -0.0358189,0.08 -0.08,0.08l-1.36111 0c-0.0441811,0 -0.08,-0.0358189 -0.08,-0.08l0 -1.20833c0,-0.0441811 0.0358189,-0.08 0.08,-0.08zm1.28111 0.16l-1.20111 0 0 1.04833 1.20111 0 0 -1.04833z" style="fill: rgb(124, 0, 255);"></path>
   <path id="_198653008" class="fil0" d="M4 2.98078c0.146386,0 0.276224,0.0883661 0.368043,0.231398 0.0848701,0.132197 0.137717,0.313654 0.138685,0.513181l3.93701e-006 0 3.93701e-006 0.000259843 0.000307087 0 -1.1811e-005 0.00172441 2.75591e-005 0c7.87402e-006,0.001 -7.87402e-006,0.00199606 -3.54331e-005,0.00298819l5.51181e-005 0c0.000307087,0.0441772 -0.0352559,0.080252 -0.0794331,0.0805591l-0.000562992 -3.93701e-006 0 7.87402e-006 -0.854165 0c-0.0441811,0 -0.08,-0.0358189 -0.08,-0.08l2.75591e-005 -0.00201181 -1.1811e-005 0c1.9685e-005,-0.00226772 0.000141732,-0.00451181 0.000346457,-0.00673228 0.00152362,-0.197339 0.0539134,-0.376925 0.137835,-0.508362 0.0919331,-0.143976 0.222138,-0.233008 0.368886,-0.233008zm0.233665 0.31765c-0.0625512,-0.0974409 -0.145323,-0.15765 -0.233665,-0.15765 -0.0888189,0 -0.171921,0.0606102 -0.234508,0.15863 -0.0585906,0.0917598 -0.0984094,0.214063 -0.109638,0.351484l0.68826 0c-0.0112992,-0.137835 -0.0514291,-0.260531 -0.110449,-0.352465z" style="fill: rgb(124, 0, 255);"></path>
   <path id="_198653488" class="fil0" d="M4.08 4.26911c0,-0.0441811 -0.0358189,-0.08 -0.08,-0.08 -0.0441811,0 -0.08,0.0358189 -0.08,0.08l0 0.223961c0,0.0441811 0.0358189,0.08 0.08,0.08 0.0441811,0 0.08,-0.0358189 0.08,-0.08l0 -0.223961z" style="fill: rgb(124, 0, 255);"></path>
  </g>
  <path class="fil1" d="M4 0c2.20914,0 4,1.79086 4,4 0,2.20914 -1.79086,4 -4,4 -2.20914,0 -4,-1.79086 -4,-4 0,-2.20914 1.79086,-4 4,-4zm0 0.319996c2.03241,0 3.68,1.64759 3.68,3.68 0,2.03241 -1.64759,3.68 -3.68,3.68 -2.03241,0 -3.68,-1.64759 -3.68,-3.68 0,-2.03241 1.64759,-3.68 3.68,-3.68z" id="id_101" style="fill: rgb(124, 0, 255);"></path>
 </g>
</svg>