<svg version="1.1" id="Layer_1_1_" xmlns="http://www.w3.org/2000/svg" xmlns:xlink="http://www.w3.org/1999/xlink" x="0px" y="0px" viewBox="0 0 16 16" style="enable-background:new 0 0 16 16;" xml:space="preserve">
<path d="M7.5,0C6.291,0,5.282,0.859,5.05,2H0v1h5.05c0.232,1.141,1.24,2,2.45,2s2.218-0.859,2.45-2H16V2H9.95
	C9.718,0.859,8.709,0,7.5,0z" id="id_101" style="fill: rgb(124, 0, 255);"></path>
<path d="M12.5,6c-1.209,0-2.218,0.859-2.45,2H0v1h10.05c0.232,1.141,1.24,2,2.45,2s2.218-0.859,2.45-2H16V8h-1.05
	C14.718,6.859,13.709,6,12.5,6z" id="id_102" style="fill: rgb(124, 0, 255);"></path>
<path d="M5.5,11c-1.209,0-2.218,0.859-2.45,2H0v1h3.05c0.232,1.141,1.24,2,2.45,2s2.218-0.859,2.45-2H16v-1H7.95
	C7.718,11.859,6.709,11,5.5,11z" id="id_103" style="fill: rgb(124, 0, 255);"></path>
</svg>